<svg height="480pt" viewBox="0 0 480 480" width="480pt" xmlns="http://www.w3.org/2000/svg"><path d="m96 32h16v16h-16zm0 0"/><path d="m128 32h16v16h-16zm0 0"/><path d="m160 32h16v16h-16zm0 0"/><path d="m8 480h248c3.234375 0 6.152344-1.949219 7.390625-4.9375s.550781-6.429688-1.734375-8.71875l-248-248c-2.289062-2.285156-5.730469-2.972656-8.71875-1.734375s-4.9375 4.15625-4.9375 7.390625v248c0 4.417969 3.582031 8 8 8zm8-236.6875 220.6875 220.6875h-220.6875zm0 0"/><path d="m141.65625 418.34375-80-80c-2.289062-2.285156-5.730469-2.972656-8.71875-1.734375s-4.9375 4.15625-4.9375 7.390625v80c0 4.417969 3.582031 8 8 8h80c3.234375 0 6.152344-1.949219 7.390625-4.9375s.550781-6.429688-1.734375-8.71875zm-77.65625-2.34375v-52.6875l52.6875 52.6875zm0 0"/><path d="m471.023438 68.289062c11.960937-11.960937 11.960937-31.351562 0-43.3125-11.960938-11.960937-31.351563-11.960937-43.3125 0l-12 12c-1.542969-20.808593-18.84375-36.9218745-39.710938-36.976562h-272c-22.082031.0273438-39.972656 17.917969-40 40v208h16v-208c0-13.253906 10.746094-24 24-24h272c13.253906 0 24 10.746094 24 24v12.6875l-75.3125 75.3125h-58.800781c-15.773438-40.386719-58.625-63.257812-100.957031-53.875-42.335938 9.378906-71.515626 48.207031-68.753907 91.476562 2.761719 43.273438 36.644531 78.078126 79.824219 82v32.398438c0 4.417969 3.582031 8 8 8h176c4.417969 0 8-3.582031 8-8v-108.6875l32-32v164.6875h-184c-4.417969 0-8 3.582031-8 8v64c0 4.417969 3.582031 8 8 8h184v8c0 13.253906-10.746094 24-24 24h-128v16h128c22.082031-.027344 39.972656-17.917969 40-40v-8h56c4.417969 0 8-3.582031 8-8v-64c0-4.417969-3.582031-8-8-8h-56v-180.6875zm-32-32c3.667968-3.832031 9.121093-5.375 14.253906-4.039062 5.128906 1.335938 9.136718 5.34375 10.472656 10.472656 1.335938 5.132813-.207031 10.585938-4.039062 14.253906l-3.710938 3.710938-20.6875-20.6875zm-183.023438 123.710938c-.050781 36.644531-27.585938 67.421875-64 71.527344v-87.527344h62.144531c1.214844 5.246094 1.839844 10.613281 1.855469 16zm-80-24v95.527344c-34.316406-3.777344-61.121094-31.386719-63.886719-65.800782-2.765625-34.414062 19.285157-65.945312 52.558594-75.15625 33.273437-9.210937 68.402344 6.492188 83.726563 37.429688h-64.398438c-4.417969 0-8 3.582031-8 8zm176 136h-160v-24.398438c24.667969-2.160156 47.269531-14.652343 62.222656-34.390624 14.949219-19.738282 20.851563-44.882813 16.25-69.210938h38.214844l-18.34375 18.34375c-1.117188 1.113281-1.878906 2.539062-2.183594 4.089844l-8 40c-.46875 2.347656.136719 4.785156 1.65625 6.636718 1.519532 1.851563 3.789063 2.929688 6.183594 2.929688.539062.003906 1.074219-.050781 1.601562-.160156l40-8c1.546876-.304688 2.972657-1.066406 4.085938-2.183594l18.3125-18.34375zm-51.089844-87.777344 10.867188 10.867188-13.601563 2.710937zm131.089844 135.777344v16h16v-16h16v48h-240v-48h16v16h16v-16h16v16h16v-16h16v16h16v-16h16v16h16v-16h16v16h16v-16h16v16h16v-16zm-104-131.3125-20.6875-20.6875 116.6875-116.6875 20.6875 20.6875zm0 0"/></svg>