<svg id="Layer_5" enable-background="new 0 0 64 64" height="512" viewBox="0 0 64 64" width="512" xmlns="http://www.w3.org/2000/svg"><path d="m58 54.271v-15.271c0-6.065-4.935-11-11-11-2.06 0-3.983.58-5.633 1.569l-4.752-1.979c-.373-.156-.615-.519-.615-.923v-.667h2v-4.443c3.055-2.019 5-5.704 5-9.557 0-6.065-4.935-11-11-11s-11 4.935-11 11c0 3.853 1.945 7.538 5 9.557v4.443h2v.667c0 .404-.242.767-.616.923l-4.404 1.836c-1.519-.9-3.283-1.426-5.172-1.426-2.722 0-5.281 1.061-7.207 2.985l-.121.121c-2.652.792-4.48 3.226-4.48 6.017v3.877c0 4.222 2.923 7.843 7 8.768v.899c0 .404-.242.767-.616.923l-6.153 2.564c-3.178 1.324-5.231 4.404-5.231 7.846v1h30 2 30v-1c0-3.355-1.959-6.353-5-7.729zm-2-15.271v14.417l-4.385-1.827c-.373-.156-.615-.519-.615-.923v-.951c1.873-1.801 3-4.317 3-7.041v-4.396l-7-2.333-7 2.333v4.396c0 2.724 1.127 5.239 3 7.041v.951c0 .404-.242.767-.616.923l-4.384 1.827v-14.417c0-4.963 4.038-9 9-9s9 4.037 9 9zm-5.618 16h-6.764l-.727-1.455.263-.109c.964-.401 1.63-1.26 1.801-2.264.544.308 1.119.573 1.73.777l.315.105.316-.105c.61-.203 1.185-.469 1.73-.777.17 1.004.837 1.863 1.8 2.264l.263.11zm-1 2-2 4h-.764l-2-4zm-2.382-7.062c-3.004-1.146-5-4.023-5-7.263v-2.955l5-1.667 5 1.667v2.955c0 3.24-1.996 6.117-5 7.263zm-19-25.938v-2h8v2zm3.42-10h1.16l-.5 6h-.16zm-8.42-2c0-4.963 4.038-9 9-9s9 4.037 9 9c0 3.222-1.725 6.396-4.304 8h-2.609l.5-6h1.413c1.654 0 3-1.346 3-3s-1.346-3-3-3h-.16c-1.548 0-2.861 1.208-2.99 2.751l-.103 1.249h-1.493l-.104-1.249c-.129-1.543-1.442-2.751-2.99-2.751h-.16c-1.654 0-3 1.346-3 3s1.346 3 3 3h1.413l.5 6h-2.609c-2.579-1.604-4.304-4.778-4.304-8zm11.753 0 .09-1.083c.044-.515.481-.917.997-.917h.16c.551 0 1 .448 1 1s-.449 1-1 1zm-5.506 0h-1.247c-.551 0-1-.448-1-1s.449-1 1-1h.16c.516 0 .954.402.997.917zm4.753 14v.667c0 .544.152 1.058.413 1.506l-2.413 2.413-2.413-2.413c.261-.448.413-.962.413-1.506v-.667zm-5.939 3.474 3.939 3.94 3.939-3.94 3.574 1.489c-1.691 1.576-2.886 3.672-3.323 6.036h-8.267c-.284-2.42-1.418-4.579-3.096-6.178zm-20.061 11.526v-3.877c0-1.968 1.333-3.676 3.243-4.153l.269-.066.503-.504c1.547-1.547 3.605-2.4 5.793-2.4 4.517 0 8.192 3.675 8.192 8.192v2.808c0 2.272-1.102 4.305-2.822 5.592.529-1.209.822-2.535.822-3.916v-4.676h-2.171c-1.557 0-3.021-.606-4.122-1.707l-.707-.707-.707.707c-1.101 1.101-2.565 1.707-4.122 1.707h-2.171v4.676c0 1.381.293 2.707.822 3.916-1.72-1.286-2.822-3.319-2.822-5.592zm12.939 12.474.536.223-1.037 3.631-1.915-1.437zm-1.526-1.301-2.413 2.413-2.413-2.413c.179-.307.306-.643.367-1.001.544.308 1.119.573 1.73.777l.316.105.316-.105c.61-.203 1.185-.469 1.73-.777.061.358.188.694.367 1.001zm2.587-9.497c0 3.239-1.996 6.116-5 7.263-3.004-1.146-5-4.023-5-7.263v-2.676h.171c1.773 0 3.456-.586 4.829-1.665 1.373 1.079 3.056 1.665 4.829 1.665h.171zm-6.522 13.216-1.915 1.437-1.038-3.631.536-.223zm-12.401 5.108c.341-2.217 1.806-4.118 3.923-5l3.667-1.528 1.771 6.2 4.562-3.422 4.562 3.422 1.771-6.2 3.667 1.528c2.117.882 3.582 2.783 3.923 5zm24.693-6.846-6.154-2.564c-.374-.156-.616-.519-.616-.923v-.899c4.077-.925 7-4.547 7-8.768v-2h8v15.271c-1.753.793-3.137 2.127-4 3.76-.902-1.707-2.364-3.1-4.23-3.877zm9.23 1.846 4.04-1.684 3.342 6.684h-11.305c.341-2.217 1.806-4.118 3.923-5zm12.618 5 3.342-6.684 4.04 1.684c2.117.882 3.582 2.783 3.923 5z"/><path d="m45 11h6v2h-6z"/><path d="m42.856 3h6v2h-6z" transform="matrix(.866 -.5 .5 .866 4.142 23.46)"/><path d="m17.143 1h2v6h-2z" transform="matrix(.5 -.866 .866 .5 5.608 17.713)"/><path d="m13 11h6v2h-6z"/><path d="m15.143 19h6v2h-6z" transform="matrix(.866 -.5 .5 .866 -7.569 11.751)"/><path d="m44.856 17h2v6h-2z" transform="matrix(.5 -.866 .866 .5 5.608 49.713)"/></svg>